<svg xmlns="http://www.w3.org/2000/svg" width="195" height="195" viewBox="0 0 195 195">
    <g fill="none" fill-rule="evenodd">
        <path fill="#3C88B5" fill-rule="nonzero" d="M5.652 0h183.696A5.652 5.652 0 0 1 195 5.652v183.696a5.652 5.652 0 0 1-5.652 5.652H5.652A5.652 5.652 0 0 1 0 189.348V5.652A5.652 5.652 0 0 1 5.652 0z"/>
        <path fill="#FFF" d="M107.059 53.376c1.223 4.18 2.574 8.897 4.053 14.148a998.335 998.335 0 0 0 4.74 16.288 2113.95 2113.95 0 0 0 5.124 16.823 580.843 580.843 0 0 0 5.048 15.6 620.135 620.135 0 0 0 4.052-16.976 538.637 538.637 0 0 0 3.9-18.965 3204.703 3204.703 0 0 0 3.595-19.5c1.172-6.474 2.268-12.72 3.288-18.735h24.776c-3.568 17.741-7.672 35.737-12.311 53.988-4.64 18.251-9.661 35.584-15.065 52h-21.87c-3.57-9.788-7.036-20.06-10.4-30.818a3394.952 3394.952 0 0 1-9.942-32.347c-3.263 10.808-6.525 21.59-9.788 32.347-3.263 10.757-6.679 21.03-10.247 30.818h-21.87c-5.405-16.416-10.426-33.749-15.066-52C34.437 77.796 30.333 59.8 26.765 42.06h25.847a1009.43 1009.43 0 0 0 3.364 18.735 1458.49 1458.49 0 0 0 3.824 19.5 927.801 927.801 0 0 0 4.053 18.965c1.376 6.118 2.778 11.776 4.206 16.976a321.64 321.64 0 0 0 5.353-15.906 1052.99 1052.99 0 0 0 5.047-16.823 692.662 692.662 0 0 0 4.512-16.212c1.376-5.2 2.625-9.84 3.747-13.918h20.34z"/>
        <path fill="#A9BECB" fill-rule="nonzero" d="M94.67 22.663l-1.112 3.676 1.838.556 1.111-3.676-1.838-.556zm-2.223 7.352l-1.111 3.675 1.837.556 1.112-3.676-1.838-.555zm-2.223 7.351l-1.111 3.676 1.838.555 1.111-3.675-1.838-.556zm-2.222 7.352l-1.111 3.675 1.837.556 1.112-3.676-1.838-.555zm-2.223 7.35l-1.111 3.677 1.838.555 1.111-3.675-1.838-.556zm-2.222 7.352l-1.111 3.676 1.837.556 1.112-3.676-1.838-.556zm-2.223 7.352l-1.111 3.675 1.838.556 1.111-3.676-1.838-.555zm-2.222 7.351L78 77.799l1.838.555 1.112-3.675-1.838-.556zm-2.223 7.351l-1.111 3.676 1.838.556 1.111-3.676-1.838-.556zm-2.222 7.352l-1.112 3.676 1.838.555 1.112-3.676-1.838-.555zm-2.223 7.351l-1.111 3.676 1.838.556 1.111-3.676-1.838-.556zm-2.222 7.352l-1.112 3.675 1.838.556 1.112-3.676-1.838-.555zm-2.223 7.351l-1.111 3.676 1.838.555 1.111-3.675-1.838-.556zm-2.222 7.351l-1.112 3.676 1.838.556 1.112-3.676-1.838-.556zm-2.223 7.352l-1.111 3.675 1.838.556 1.111-3.676-1.838-.555zm-2.222 7.351l-1.112 3.676 1.838.555 1.111-3.675-1.837-.556zm-2.223 7.352l-1.111 3.675 1.838.556 1.111-3.676-1.838-.555zm-2.222 7.35l-1.112 3.677 1.838.555 1.111-3.675-1.837-.556zm-2.223 7.352l-1.111 3.676 1.838.556 1.111-3.676-1.838-.556zm-2.222 7.352l-1.112 3.675 1.838.556 1.111-3.676-1.837-.555zm-2.223 7.351l-1.111 3.676 1.838.555 1.11-3.675-1.837-.556zm-2.222 7.351l-1.112 3.676 1.838.556 1.111-3.676-1.837-.556zm-2.223 7.352l-.81 2.681 1.837.556.81-2.682-1.837-.555zM113.787 22.663l-1.111 3.676 1.838.556 1.11-3.676-1.837-.556zm-2.223 7.352l-1.11 3.675 1.837.556 1.111-3.676-1.838-.555zm-2.222 7.351l-1.111 3.676 1.838.555 1.11-3.675-1.837-.556zm-2.223 7.352l-1.11 3.675 1.837.556 1.111-3.676-1.838-.555zm-2.222 7.35l-1.111 3.677 1.838.555 1.11-3.675-1.837-.556zm-2.223 7.352l-1.11 3.676 1.837.556 1.111-3.676-1.838-.556zm-2.222 7.352l-1.111 3.675 1.837.556 1.112-3.676-1.838-.555zm-2.223 7.351l-1.11 3.676 1.837.555 1.111-3.675-1.838-.556zm-2.222 7.351l-1.111 3.676 1.837.556 1.112-3.676-1.838-.556zm-2.223 7.352l-1.11 3.676 1.837.555 1.111-3.676-1.838-.555zm-2.222 7.351l-1.111 3.676 1.837.556 1.112-3.676-1.838-.556zm-2.223 7.352l-1.11 3.675 1.837.556 1.111-3.676-1.838-.555zm-2.222 7.351l-1.111 3.676 1.837.555 1.112-3.675-1.838-.556zm-2.223 7.351l-1.11 3.676 1.837.556 1.111-3.676-1.838-.556zm-2.222 7.352l-1.111 3.675 1.837.556 1.112-3.676-1.838-.555zm-2.223 7.351l-1.111 3.676 1.838.555 1.111-3.675-1.838-.556zm-2.222 7.352l-1.111 3.675 1.837.556 1.112-3.676-1.838-.555zm-2.223 7.35l-1.111 3.677 1.838.555 1.111-3.675-1.838-.556zm-2.222 7.352l-1.111 3.676 1.837.556 1.112-3.676-1.838-.556zm-2.223 7.352l-1.111 3.675 1.838.556 1.111-3.676-1.838-.555zm-2.222 7.351l-1.112 3.676 1.838.555 1.112-3.675-1.838-.556zm-2.223 7.351l-1.111 3.676 1.838.556 1.111-3.676-1.838-.556zm-2.222 7.352l-.81 2.681 1.837.556.81-2.682-1.837-.555z"/>
        <path fill="#A9BECB" fill-rule="nonzero" d="M100.33 22.663l1.112 3.676-1.838.556-1.111-3.676 1.838-.556zm2.223 7.352l1.111 3.675-1.837.556-1.112-3.676 1.838-.555zm2.223 7.351l1.111 3.676-1.838.555-1.111-3.675 1.838-.556zm2.222 7.352l1.111 3.675-1.837.556-1.112-3.676 1.838-.555zm2.223 7.35l1.111 3.677-1.838.555-1.111-3.675 1.838-.556zm2.222 7.352l1.112 3.676-1.838.556-1.112-3.676 1.838-.556zm2.223 7.352l1.111 3.675-1.838.556-1.111-3.676 1.838-.555zm2.222 7.351L117 77.799l-1.838.555-1.112-3.675 1.838-.556zm2.223 7.351l1.111 3.676-1.838.556-1.111-3.676 1.838-.556zm2.222 7.352l1.112 3.676-1.838.555-1.112-3.676 1.838-.555zm2.223 7.351l1.111 3.676-1.838.556-1.111-3.676 1.838-.556zm2.222 7.352l1.112 3.675-1.838.556-1.112-3.676 1.838-.555zm2.223 7.351l1.111 3.676-1.838.555-1.111-3.675 1.838-.556zm2.222 7.351l1.112 3.676-1.838.556-1.112-3.676 1.838-.556zm2.223 7.352l1.111 3.675-1.838.556-1.111-3.676 1.838-.555zm2.222 7.351l1.112 3.676-1.838.555-1.111-3.675 1.837-.556zm2.223 7.352l1.111 3.675-1.838.556-1.111-3.676 1.838-.555zm2.222 7.35l1.112 3.677-1.838.555-1.111-3.675 1.837-.556zm2.223 7.352l1.111 3.676-1.838.556-1.111-3.676 1.838-.556zm2.222 7.352l1.112 3.675-1.838.556-1.111-3.676 1.837-.555zm2.223 7.351l1.111 3.676-1.838.555-1.11-3.675 1.837-.556zm2.222 7.351l1.112 3.676-1.838.556-1.111-3.676 1.837-.556zm2.223 7.352l.81 2.681-1.837.556-.81-2.682 1.837-.555zM77.39 22.663l1.11 3.676-1.837.556-1.111-3.676 1.838-.556zm2.222 7.352l1.111 3.675-1.838.556-1.11-3.676 1.837-.555zm2.223 7.351l1.11 3.676-1.837.555-1.111-3.675 1.838-.556zm2.222 7.352l1.111 3.675-1.838.556-1.11-3.676 1.837-.555zm2.223 7.35l1.11 3.677-1.837.555-1.111-3.675 1.838-.556zm2.222 7.352l1.111 3.676-1.838.556-1.11-3.676 1.837-.556zm2.223 7.352l1.11 3.675-1.837.556-1.111-3.676 1.838-.555zm2.222 7.351l1.111 3.676-1.838.555-1.11-3.675 1.837-.556zm2.223 7.351l1.11 3.676-1.837.556-1.111-3.676 1.838-.556zm2.222 7.352l1.111 3.676-1.837.555-1.112-3.676 1.838-.555zm2.223 7.351l1.11 3.676-1.837.556-1.111-3.676 1.838-.556zm2.222 7.352l1.111 3.675-1.837.556-1.112-3.676 1.838-.555zm2.223 7.351l1.11 3.676-1.837.555-1.111-3.675 1.838-.556zm2.222 7.351l1.111 3.676-1.837.556-1.112-3.676 1.838-.556zm2.223 7.352l1.11 3.675-1.837.556-1.111-3.676 1.838-.555zm2.222 7.351l1.111 3.676-1.837.555-1.112-3.675 1.838-.556zm2.223 7.352l1.11 3.675-1.837.556-1.111-3.676 1.838-.555zm2.222 7.35l1.111 3.677-1.837.555-1.112-3.675 1.838-.556zm2.223 7.352l1.111 3.676-1.838.556-1.111-3.676 1.838-.556zm2.222 7.352l1.111 3.675-1.837.556-1.112-3.676 1.838-.555zm2.223 7.351l1.111 3.676-1.838.555-1.111-3.675 1.838-.556zm2.222 7.351l1.112 3.676-1.838.556-1.112-3.676 1.838-.556zm2.223 7.352l.81 2.681-1.837.556-.811-2.682 1.838-.555z"/>
        <path fill="#A9BECB" fill-rule="nonzero" d="M19.118 150.078h3.84v-1.92h-3.84v1.92zm7.68 0h3.84v-1.92h-3.84v1.92zm7.68 0h3.84v-1.92h-3.84v1.92zm7.68 0h3.84v-1.92h-3.84v1.92zm7.68 0h3.84v-1.92h-3.84v1.92zm7.68 0h3.84v-1.92h-3.84v1.92zm7.68 0h3.84v-1.92h-3.84v1.92zm7.68 0h3.84v-1.92h-3.84v1.92zm7.68 0h3.84v-1.92h-3.84v1.92zm7.68 0h3.84v-1.92h-3.84v1.92zm7.68 0h3.84v-1.92h-3.84v1.92zm7.68 0h3.84v-1.92h-3.84v1.92zm7.68 0h3.84v-1.92h-3.84v1.92zm7.68 0h3.84v-1.92h-3.84v1.92zm7.68 0h3.84v-1.92h-3.84v1.92zm7.68 0h3.84v-1.92h-3.84v1.92zm7.68 0h3.84v-1.92h-3.84v1.92zm7.68 0h3.84v-1.92h-3.84v1.92zm7.68 0h3.84v-1.92h-3.84v1.92zm7.68 0h3.246v-1.92h-3.246v1.92zM19.118 43.019h3.84v-1.92h-3.84v1.92zm7.68 0h3.84v-1.92h-3.84v1.92zm7.68 0h3.84v-1.92h-3.84v1.92zm7.68 0h3.84v-1.92h-3.84v1.92zm7.68 0h3.84v-1.92h-3.84v1.92zm7.68 0h3.84v-1.92h-3.84v1.92zm7.68 0h3.84v-1.92h-3.84v1.92zm7.68 0h3.84v-1.92h-3.84v1.92zm7.68 0h3.84v-1.92h-3.84v1.92zm7.68 0h3.84v-1.92h-3.84v1.92zm7.68 0h3.84v-1.92h-3.84v1.92zm7.68 0h3.84v-1.92h-3.84v1.92zm7.68 0h3.84v-1.92h-3.84v1.92zm7.68 0h3.84v-1.92h-3.84v1.92zm7.68 0h3.84v-1.92h-3.84v1.92zm7.68 0h3.84v-1.92h-3.84v1.92zm7.68 0h3.84v-1.92h-3.84v1.92zm7.68 0h3.84v-1.92h-3.84v1.92zm7.68 0h3.84v-1.92h-3.84v1.92zm7.68 0h3.246v-1.92h-3.246v1.92z"/>
    </g>
</svg>
